<svg xmlns="http://www.w3.org/2000/svg" data-name="Layer 1" viewBox="0 0 80 80" x="0px" y="0px"><title>nvr-networkvideorecorder-ocr-opticalcharacterrecognition-camera</title><path d="M40,36a7,7,0,1,0-7-7A7.008,7.008,0,0,0,40,36Zm0-10a3,3,0,1,1-3,3A3,3,0,0,1,40,26Z"/><path d="M40,42A13,13,0,1,0,27,29,13.015,13.015,0,0,0,40,42Zm0-22a9,9,0,1,1-9,9A9.01,9.01,0,0,1,40,20Z"/><circle cx="52" cy="17" r="2"/><path d="M19,14V44a6.007,6.007,0,0,0,6,6H55a6.007,6.007,0,0,0,6-6V14a6.007,6.007,0,0,0-6-6H25A6.007,6.007,0,0,0,19,14Zm38,0V44a2,2,0,0,1-2,2H25a2,2,0,0,1-2-2V14a2,2,0,0,1,2-2H55A2,2,0,0,1,57,14Z"/><path d="M19,72H61a6.007,6.007,0,0,0,6-6V29a2,2,0,0,0-4,0V56.35A5.96,5.96,0,0,0,61,56H19a5.96,5.96,0,0,0-2,.35V29a2,2,0,0,0-4,0V66A6.007,6.007,0,0,0,19,72Zm0-12H61a2,2,0,0,1,2,2v4a2,2,0,0,1-2,2H19a2,2,0,0,1-2-2V62A2,2,0,0,1,19,60Z"/></svg>
